# xmcd
#
# Track frame offsets:
# 150
# 16299
# 48689
# 82228
# 115982
# 148972
# 173829
# 200443
# 223118
# 253096
# 285645
# 308660
# 331197
#
# Disc length: 4743 seconds
#
#
# Revision: 0
# Processed by: cddbd v1.5.2PL0 Copyright (c) Steve Scherf et al.
# Submitted via: FreeRIP 2.945 
#
DISCID=c812850d
DTITLE=Herriot-J1972 - Great-Small10
DYEAR=1972
DGENRE=Jungle
TTITLE0=GS 1001
TTITLE1=GS 1002
TTITLE2=GS 1003
TTITLE3=GS 1004
TTITLE4=GS 1005
TTITLE5=GS 1006
TTITLE6=GS 1007
TTITLE7=GS 1008
TTITLE8=GS 1009
TTITLE9=GS 1010
TTITLE10=GS 1011
TTITLE11=GS 1012
TTITLE12=GS 1013
EXTD=All Creatures Great and Small 12 CDs\nby James Harriot read by ChristopherTimothy\nAudio Renassance - Jungle - Country
EXTT0=
EXTT1=
EXTT2=
EXTT3=
EXTT4=
EXTT5=
EXTT6=
EXTT7=
EXTT8=
EXTT9=
EXTT10=
EXTT11=
EXTT12=
PLAYORDER=
